<svg width="24" height="24" viewBox="0 0 15 15" fill="none" xmlns="http://www.w3.org/2000/svg">
<g clip-path="url(#clip0_119_79)">
<path d="M14.5 14.5L10.5 10.5M6.5 12.5C5.71207 12.5 4.93185 12.3448 4.2039 12.0433C3.47595 11.7417 2.81451 11.2998 2.25736 10.7426C1.70021 10.1855 1.25825 9.52405 0.956723 8.7961C0.655195 8.06815 0.5 7.28793 0.5 6.5C0.5 5.71207 0.655195 4.93185 0.956723 4.2039C1.25825 3.47595 1.70021 2.81451 2.25736 2.25736C2.81451 1.70021 3.47595 1.25825 4.2039 0.956723C4.93185 0.655195 5.71207 0.5 6.5 0.5C8.0913 0.5 9.61742 1.13214 10.7426 2.25736C11.8679 3.38258 12.5 4.9087 12.5 6.5C12.5 8.0913 11.8679 9.61742 10.7426 10.7426C9.61742 11.8679 8.0913 12.5 6.5 12.5Z" stroke="white"/>
</g>
<defs>
<clipPath id="clip0_119_79">
<rect width="15" height="15" fill="white"/>
</clipPath>
</defs>
</svg>
